<?xml version="1.0" encoding="utf-8"?>
<!-- Generator: Adobe Illustrator 26.0.0, SVG Export Plug-In . SVG Version: 6.00 Build 0)  -->
<svg version="1.1" id="图层_1" xmlns="http://www.w3.org/2000/svg" xmlns:xlink="http://www.w3.org/1999/xlink" x="0px" y="0px"
	 viewBox="0 0 1280 640" style="enable-background:new 0 0 1280 640;" xml:space="preserve">
<style type="text/css">
	.st0{fill:#FFFFFF;stroke:#FFFFFF;stroke-width:4;stroke-miterlimit:10;}
	.st1{font-family:'AdobeSongStd-Light-GBpc-EUC-H';}
	.st2{font-size:60px;}
	.st3{fill:#54B43E;}
	.st4{fill:#231815;stroke:#231815;stroke-width:4;stroke-miterlimit:10;}
	.st5{font-size:66px;}
	.st6{fill:#6DB92C;stroke:#66C13A;stroke-width:4;stroke-miterlimit:10;}
	.st7{fill:#231815;stroke:#66C13A;stroke-width:4;stroke-miterlimit:10;}
	.st8{fill:#66C13A;stroke:#FFFFFF;stroke-width:4;stroke-miterlimit:10;}
</style>
<g transform="translate(0.000000,640.000000) scale(0.100000,-0.100000)">
	<path d="M81,4722c-19-9-44-30-55-45c-20-27-21-43-24-358c-3-311-2-332,17-374c16-36,29-50,63-65c40-18,67-20,353-20
		c174,0,326,4,346,10c19,5,48,24,65,41l29,30l3,350c3,339,2,352-18,384c-39,63-51,65-417,65C151,4740,111,4738,81,4722z"/>
	<path d="M2373,4731c-49-13-83-39-99-77c-12-29-14-95-12-374l3-340l38-37l37-38l348-3c322-2,349-1,381,16c69,37,71,47,71,422
		c0,470,34,434-420,437C2547,4738,2390,4735,2373,4731z"/>
	<path d="M3458,4715c-14-8-36-30-47-49c-20-32-21-46-21-372c0-319,1-341,20-371c37-62,43-63,421-63c325,0,343,1,374,20
		c63,39,65,52,65,415s-2,376-65,415c-31,19-49,20-376,20C3549,4729,3480,4727,3458,4715z"/>
	<path d="M4593,4714c-18-9-42-31-53-49c-19-31-20-49-20-371c0-476-37-438,425-442c327-3,330-2,374,20c80,41,81,45,81,418
		c0,363-2,372-69,417c-34,23-37,23-370,23C4674,4730,4620,4727,4593,4714z"/>
	<path d="M5725,4710c-75-37-75-35-75-420c0-384,0-384,72-421c34-18,62-19,364-19c361,0,373,2,417,64c22,31,22,35,22,376
		c0,477,36,440-437,440C5785,4730,5762,4729,5725,4710z"/>
	<path d="M6874,4719c-46-13-91-69-99-121c-3-24-5-178-3-343c3-333,6-346,71-385c30-19,52-20,370-20c372,0,374,0,419,62l23,33v342
		c0,329-1,343-21,369c-11,15-33,37-48,48c-26,20-41,21-354,23C7051,4728,6891,4725,6874,4719z"/>
	<path d="M7985,4710c-31-12-64-53-75-91c-13-45-13-623,0-671c6-20,26-50,46-67l35-31h347c327,0,349,1,379,20c62,37,63,44,63,415
		s-1,378-63,415c-30,19-52,20-372,19C8158,4719,7996,4715,7985,4710z"/>
	<path d="M10243,4690c-62-37-63-44-63-417c0-318,1-340,20-370c41-67-47-63,1291-63c1197,0,1212,0,1244,20c63,39,65,52,65,415
		s-2,376-65,415c-32,20-47,20-1246,20C10303,4710,10274,4709,10243,4690z"/>
	<path d="M80,3592c-19-9-45-32-57-51c-23-34-23-37-23-371s0-337,23-371c48-72,8-69,822-69c696,0,732,1,772,19c77,36,78,39,78,421
		c0,317-1,337-20,369c-11,18-36,42-55,52c-33,18-72,19-770,19C170,3610,112,3609,80,3592z"/>
	<path d="M11070,3592c-22-12-44-35-57-62c-22-43-23-52-23-360c0-288,2-319,19-357c14-30,31-48,60-62c40-21,52-21,828-21
		c879,0,832-4,880,69c23,34,23,37,23,371s0,337-23,371c-48,73-1,69-882,69C11149,3610,11103,3609,11070,3592z"/>
	<path d="M2019,3577c-67-45-69-55-69-411c0-298,1-322,20-361c37-76,33-75,428-75c339,0,350,1,376,21c55,43,56,50,56,414
		c0,371-1,378-63,415c-30,19-52,20-373,20C2056,3600,2053,3600,2019,3577z"/>
	<path d="M3161,3582c-19-9-44-30-55-45c-20-27-21-43-24-365c-3-372-1-380,61-426c27-20,43-21,355-24c208-2,340,0,362,7
		c20,6,49,24,65,41l30,31v359v358l-25,27c-51,55-53,55-407,55C3230,3600,3191,3598,3161,3582z"/>
	<path d="M4306,3590c-15-5-37-17-48-27c-47-42-48-53-48-405c0-315,1-335,20-366c11-18,34-41,52-52c31-19,51-20,366-20
		c359,0,361,0,412,55l25,27l3,346c3,486,40,446-423,449C4484,3598,4322,3595,4306,3590z"/>
	<path d="M5403,3570c-62-37-63-44-63-412c0-373,2-383,71-420c32-17,59-18,381-16l348,3l37,38l38,37l3,340c3,378,1,393-62,431
		c-29,18-56,19-376,19C5455,3590,5433,3589,5403,3570z"/>
	<path d="M6533,3571c-62-39-63-45-63-418c0-318,1-340,20-370c37-62,43-63,420-63c384,0,384,0,421,72c18,34,19,62,19,358
		c0,347-2,361-55,410l-27,25l-351,3C6582,3590,6563,3589,6533,3571z"/>
	<path d="M7671,3573c-71-35-71-37-71-425v-346l27-33c49-57,61-59,410-59c294,0,321,2,361,20c34,15,47,29,63,65c19,43,20,63,17,374
		c-4,456,33,421-443,421C7748,3590,7701,3587,7671,3573z"/>
	<path d="M8805,3570c-80-39-80-41-80-420c0-475-35-440,440-440c378,0,381,1,423,81c22,44,23,47,20,369c-3,370-4,376-81,411
		c-38,17-69,19-362,19C8865,3590,8842,3589,8805,3570z"/>
	<path d="M9967,3580c-47-9-94-53-108-100c-7-22-9-152-7-355c3-355,3-354,71-395c30-19,53-20,370-20c373,0,380,1,417,63
		c19,30,20,52,20,380v347l-33,36c-23,26-45,38-77,45C10566,3591,10021,3591,9967,3580z"/>
	<path d="M102,2473c-40-8-90-67-97-115c-3-24-5-183-3-355c3-297,4-313,24-340c11-15,36-36,55-45c32-17,101-18,1017-18
		c1080,0,1027-3,1073,61l24,34v345c0,379,1,373-63,417c-26,17-77,18-1017,19C570,2477,115,2475,102,2473z"/>
	<path d="M3699,2451c-50-16-71-33-90-74c-17-38-19-70-19-362c0-357,2-367,69-412c34-23,37-23,368-23c371,0,386,2,424,64
		c18,29,19,56,19,378v347l-31,35c-17,20-47,40-67,46C4329,2462,3738,2462,3699,2451z"/>
	<path d="M4805,2446c-17-7-43-28-58-45l-27-33v-348v-348l27-33c49-57,61-59,413-59c355,0,369,2,411,61l24,34v347
		c0,475,37,438-435,438C4912,2459,4828,2456,4805,2446z"/>
	<path d="M5944,2449c-18-5-46-25-63-44l-31-36v-347c0-330,1-349,20-380c37-60,53-62,422-62c469,0,432-36,436,423
		c4,484,35,451-428,454C6121,2458,5961,2455,5944,2449z"/>
	<path d="M7026,2419c-22-19-40-46-46-70c-7-26-10-155-8-357c3-352,3-351,71-392c30-19,53-20,372-20c474,0,439-31,443,390
		c4,361,1,390-43,439l-33,36l-360,3l-360,3L7026,2419z"/>
	<path d="M8169,2427c-67-45-69-55-69-411c0-471-30-440,422-444c197-2,332,1,355,7c22,6,52,25,68,41l30,31l3,349c3,387,2,392-61,430
		c-30,19-52,20-373,20C8206,2450,8203,2450,8169,2427z"/>
	<path d="M10450,2443c-8-3-26-15-38-27c-51-46-52-52-52-403c0-367,2-378,70-418c35-20,47-20,1150-20s1115,0,1150,20
		c68,40,70,51,70,418c0,354,0,356-55,407l-27,25l-1126,2C10972,2448,10458,2446,10450,2443z"/>
	<path d="M1783,1301c-68-42-68-41-71-392c-2-205,1-331,8-357c6-25,24-52,45-71l36-31h465c522,0,507-2,545,72c18,34,19,62,19,363
		c0,352,0,354-55,405l-27,25l-466,3C1833,1320,1814,1319,1783,1301z"/>
	<path d="M3143,1300c-68-41-68-40-71-392c-2-202,1-331,8-357c6-24,24-51,45-70l36-31h3231c3222,0,3231,0,3263,20c63,39,65,52,65,409
		c0,348-2,362-55,411l-27,25l-3231,2C3217,1320,3175,1320,3143,1300z"/>
	<path d="M10033,1301c-68-42-68-41-71-393c-2-202,1-331,8-357c6-24,24-51,45-70l36-31h465c525,0,506-3,544,75c19,39,20,63,20,358
		c0,344-2,359-55,407l-27,25l-466,3C10083,1320,10064,1319,10033,1301z"/>
	<path d="M11393,1300c-62-37-63-44-63-417c0-318,1-340,20-370c39-65,13-63,712-63c602,0,635,1,664,19c62,37,64,54,64,418
		c0,367-2,378-71,415c-32,17-73,18-664,18C11448,1320,11424,1319,11393,1300z"/>
	<path d="M79,1273c-57-48-59-61-59-408s2-360,59-408l33-27h636c614,0,638,1,669,20c62,37,63,44,63,415s-1,378-63,415
		c-31,19-55,20-669,20H112L79,1273z"/>
	<text transform="matrix(10 0 0 -10 9398.542 1828.2988)" class="st0 st1 st2">M</text>
	<path class="st3" d="M1211,4722.7c-71-35-71-37-71-425v-346l27-33c49-57,61-59,410-59c294,0,321,2,361,20c34,15,47,29,63,65
		c19,43,20,63,17,374c-4,456,33,421-443,421C1288,4739.7,1241,4736.7,1211,4722.7z"/>
	<text transform="matrix(10 0 0 -10 1346.5271 4132.1904)" class="st0 st1 st2">Q</text>
	<path class="st3" d="M9109.9,4707.7c-71-35-71-37-71-425v-346l27-33c49-57,61-59,410-59c294,0,321,2,361,20c34,15,47,29,63,65
		c19,43,20,63,17,374c-4,456,33,421-443,421C9186.9,4724.7,9139.9,4721.7,9109.9,4707.7z"/>
	<text transform="matrix(10 0 0 -10 9327.0107 4102.1904)" class="st0 st1 st2">P</text>
	<path class="st3" d="M2521.7,2443c-71-35-71-37-71-425v-346l27-33c49-57,61-59,410-59c294,0,321,2,361,20c34,15,47,29,63,65
		c19,43,20,63,17,374c-4,456,33,421-443,421C2598.7,2460,2551.7,2457,2521.7,2443z"/>
	<text transform="matrix(10 0 0 -10 2700.9495 1828.2988)" class="st0 st1 st2">Z</text>
	<path class="st3" d="M9301.4,2433.4c-71-35-71-37-71-425v-346l27-33c49-57,61-59,410-59c294,0,321,2,361,20c34,15,47,29,63,65
		c19,43,20,63,17,374c-4,456,33,421-443,421C9378.4,2450.4,9331.4,2447.4,9301.4,2433.4z"/>
	<text transform="matrix(10 0 0 -10 9410.5332 1828.2988)" class="st0 st1 st2">M</text>
</g>
<text transform="matrix(1 0 0 1 183.0126 102.8301)"><tspan x="0" y="0" class="st4 st1 st5">Press four </tspan><tspan x="265.7" y="0" class="st6 st1 st5">corners</tspan><tspan x="457.4" y="0" class="st7 st1 st5"> </tspan><tspan x="471.1" y="0" class="st4 st1 st5">to roll your dice :)</tspan></text>
<path class="st8" d="M90.9,175.3v-27.7c0-2.7,2-5,4.6-5H122c4.1,0,6.1,5.5,3.2,8.6l-26.5,27.7C95.8,182,90.9,179.7,90.9,175.3z"/>
<path class="st8" d="M1013.8,173.3v-27.7c0-2.7-2-5-4.6-5h-26.5c-4.1,0-6.1,5.5-3.2,8.6l26.5,27.7
	C1008.9,180,1013.8,177.7,1013.8,173.3z"/>
<path class="st8" d="M1032.8,472.4v27.7c0,2.7-2,5-4.6,5h-26.5c-4.1,0-6.1-5.5-3.2-8.6l26.5-27.7
	C1027.9,465.8,1032.8,468.1,1032.8,472.4z"/>
<path class="st8" d="M222.2,469.4v27.7c0,2.7,2,5,4.6,5h26.5c4.1,0,6.1-5.5,3.2-8.6L230,465.9C227.1,462.8,222.2,465,222.2,469.4z"
	/>
</svg>
